@startuml

class php_standard_library {
	resource fopen(string $path)
}

class FileUtility {
	resource fopen(string $path)
}

class S3ServiceProvider {

}

class S3Client {
	stdClass putObject(array $args)
	waitUntil($waiter, array $input)
}

class S3UploadService {
    __construct(S3ServiceProvider $client)
}

Command <|-- S3Upload
S3Upload <-- S3UploadService
S3Upload <-- FileUtility
FileUtility <-- php_standard_library
S3UploadService <-- S3ServiceProvider
S3UploadService <-- S3Exception

ServiceProvider <|-- S3ServiceProvider
S3ServiceProvider <-- S3Client

@enduml
